PathFileType	4	(X/Y/Z)	SUBJ82_4_walk_RCNL2025.trc
DataRate	CameraRate	NumFrames	NumMarkers	Units	OrigDataRate	OrigDataStartFrame	OrigNumFrames
100	100	4	25	mm	100	152	242
Frame#	Time	R_Shoulder			L_Shoulder			C7			J_Notch			R_Elbow			L_Elbow			R_Wrist			L_Wrist			R_Asis			L_Asis			Sacral			Thoracic			Sternum			R_Thigh_Lateral			R_Knee_Lateral			R_Shank_Lateral			R_Ankle_Lateral			R_Heel			R_Toe			L_Thigh_Lateral			L_Knee_Lateral			L_Shank_Lateral			L_Ankle_Lateral			L_Heel			L_Toe		
		X1	Y1	Z1	X2	Y2	Z2	X3	Y3	Z3	X4	Y4	Z4	X5	Y5	Z5	X6	Y6	Z6	X7	Y7	Z7	X8	Y8	Z8	X9	Y9	Z9	X10	Y10	Z10	X11	Y11	Z11	X12	Y12	Z12	X13	Y13	Z13	X14	Y14	Z14	X15	Y15	Z15	X16	Y16	Z16	X17	Y17	Z17	X18	Y18	Z18	X19	Y19	Z19	X20	Y20	Z20	X21	Y21	Z21	X22	Y22	Z22	X23	Y23	Z23	X24	Y24	Z24	X25	Y25	Z25
152	1.51000000	984.307129	1427.338867	-78.016335	1034.084473	1440.009644	-484.864777	957.111206	1525.609009	-283.169891	1076.981812	1407.642578	-274.090576	862.488037	1102.563354	-24.940744	990.702148	1096.713989	-579.361267	901.536591	844.062195	-42.323414	1122.959961	869.917389	-572.628418	1050.051392	994.303223	-143.901947	1063.330933	1007.867676	-410.876617	875.973938	1016.532837	-289.854156	859.762451	1289.552124	-301.765839	1098.030762	1231.857910	-274.495911	1102.996948	580.745911	-78.381973	1110.562744	501.207123	-125.274765	996.197998	311.653961	-82.954391	933.812073	142.216660	-183.299667	890.712219	126.720108	-235.199112	1048.259644	67.715767	-179.022415	958.536011	561.462585	-453.196472	955.879211	486.395935	-406.698669	926.120972	255.153595	-437.996948	892.574951	69.870628	-364.261993	847.916992	54.430527	-313.048828	1031.132324	40.641716	-334.390167
153	1.52000000	998.499573	1425.840210	-77.811348	1049.046265	1439.906738	-484.457062	971.483093	1524.641113	-282.775757	1091.481689	1406.947754	-273.794830	873.733459	1101.875366	-26.580212	1010.582214	1096.306641	-580.051819	910.693268	843.227661	-44.199214	1148.808044	873.140747	-572.844849	1064.760254	993.907593	-144.243652	1077.305298	1006.630066	-411.335083	890.293884	1015.623779	-289.272491	874.362671	1288.683228	-302.032379	1112.687012	1230.992798	-274.749542	1123.696655	581.897034	-79.444901	1131.800293	501.661438	-126.709602	1028.630127	304.377869	-83.848953	977.248962	131.134338	-183.701416	935.669250	112.461830	-235.727539	1096.509033	64.853645	-177.840637	964.343384	561.494629	-452.572815	960.234802	486.399231	-406.060608	928.119019	255.317780	-437.345459	893.050415	70.325180	-363.794708	848.239624	54.947758	-312.543304	1031.407471	40.608208	-334.321747
154	1.53000000	1012.729187	1423.937256	-77.597946	1064.002686	1439.345703	-484.040314	985.869263	1523.269897	-282.376984	1106.008179	1405.826660	-273.486603	885.251587	1100.756592	-28.156700	1030.331177	1095.552368	-580.678467	920.481049	842.116272	-45.790051	1174.405334	876.154755	-572.830597	1079.515137	993.005737	-144.432724	1091.315308	1005.043396	-411.626404	904.652039	1014.282104	-288.689514	888.943359	1287.442871	-302.217316	1127.380737	1229.682617	-274.927826	1143.524780	582.428345	-80.607155	1152.239624	501.444061	-128.123199	1061.235352	296.979706	-84.492783	1021.485413	120.549675	-183.719635	981.641418	98.933853	-235.842422	1145.027466	62.703171	-176.588760	970.459351	561.381042	-451.955200	964.952942	486.291870	-405.434082	930.526550	255.372696	-436.683472	893.535339	70.765594	-363.288300	848.542358	55.497593	-311.996704	1031.664795	40.548286	-334.199127
155	1.54000000	1026.975586	1421.661011	-77.371422	1078.967773	1438.338135	-483.608429	1000.281372	1521.509277	-281.969666	1120.571167	1404.284058	-273.156708	897.055603	1099.217773	-29.664513	1049.950195	1094.457642	-581.239014	930.978577	840.759277	-47.069258	1199.733215	878.949982	-572.581085	1094.339478	991.620728	-144.474701	1105.364624	1003.136353	-411.750702	919.057190	1012.519409	-288.096802	903.500000	1285.853516	-302.317505	1142.098755	1227.937134	-275.019714	1162.415649	582.260681	-81.826164	1171.860107	500.527344	-129.498016	1093.908325	289.651245	-84.862617	1066.412598	110.708855	-183.305496	1028.474854	86.402145	-235.517380	1193.700439	61.414940	-175.296844	976.902222	561.111450	-451.355774	970.056519	486.066986	-404.827301	933.300476	255.327194	-436.022797	894.003418	71.175903	-362.736206	848.822327	56.093983	-311.422516	1031.874756	40.449818	-334.025543
